<svg xmlns="http://www.w3.org/2000/svg" viewBox="0 0 1024 1024">
  <defs>
    <clipPath id="bg">
      <rect width="1024" height="1024" rx="224"/>
    </clipPath>
  </defs>
  <g clip-path="url(#bg)">
    <!-- Blue circle background (same as before) -->
    <circle cx="512" cy="512" r="440" fill="#0096FA"/>
    <!-- Official Pixiv 2025 "p" path scaled and perfectly centered -->
    <path d="M0.000662555 28.4229C0.000662555 28.7417 0.258914 29 0.577781 29H4.04428C4.36315 29 4.6214 28.7417 4.6214 28.4229V25.2702C6.08945 26.1706 7.81639 26.6896 9.66456 26.6896C15.002 26.6896 19.3285 22.3631 19.3285 17.0257C19.3285 11.6883 15.002 7.36182 9.66456 7.36182C7.39397 7.36182 5.30839 8.14667 3.65848 9.4575L2.48088 7.62701C2.37481 7.46158 2.19169 7.36182 1.99532 7.36182H0.577149C0.258282 7.36182 3.05176e-05 7.62007 3.05176e-05 7.93894V28.4229H0.000662555ZM9.66519 22.0682C6.87999 22.0682 4.62203 19.8103 4.62203 17.0251C4.62203 14.2399 6.87999 11.9819 9.66519 11.9819C12.4504 11.9819 14.7084 14.2399 14.7084 17.0251C14.7084 19.8103 12.4504 22.0682 9.66519 22.0682Z"
          fill="white"
          transform="translate(270, 241) scale(25) translate(0, -7.36182)" />
  </g>
</svg>
